
<svg id="Layer_1" data-name="Layer 1" xmlns="http://www.w3.org/2000/svg" viewBox="0 0 115.94 32.25">
  <defs>
    <style>
      .cls-1 {
        fill: none;
      }

      .cls-2 {
        fill: #f8c100;
      }

      .cls-3 {
        fill: #7b4d9f;
      }
    </style>
  </defs>
  <path class="cls-1" d="M74.41,12.05c-4.53,0-7.81,3.31-7.81,7.88s3.29,7.88,7.81,7.88,7.85-3.39,7.85-7.88-3.37-7.88-7.85-7.88Z"/>
  <path class="cls-1" d="M103.49,12.04c-4.48,0-7.85,3.39-7.85,7.88s3.38,7.88,7.85,7.88,7.81-3.31,7.81-7.88-3.29-7.88-7.81-7.88Z"/>
  <rect x="24.98" y="8.09" width="4.57" height="23.66"/>
  <path class="cls-2" d="M26.59,5.09h2.18c.35,0,.68-.18.86-.48l1.83-3.03c.19-.31.19-.69.02-1.01-.18-.31-.51-.51-.87-.51h-2.16c-.35,0-.67.18-.85.48l-1.85,3.03c-.19.31-.2.7-.02,1.01.18.31.51.51.87.51Z"/>
  <path d="M42,23.22v-10.9h7.11v-4.22h-7.11V3.29h-1.27l-7.28,7.68v1.34h3.99v11.02c0,5.19,3.21,8.42,8.37,8.42h3.44v-4.3h-2.98c-2.79,0-4.26-1.47-4.26-4.24Z"/>
  <path d="M82.02,10.32c-2.15-1.77-4.91-2.73-7.89-2.73-7.06,0-12.19,5.18-12.19,12.33s5.13,12.33,12.19,12.33c3.21,0,5.99-.99,8.12-2.87v2.37h4.34s0-31.75,0-31.75h-4.57v10.32ZM74.41,27.8c-4.53,0-7.81-3.31-7.81-7.88s3.29-7.88,7.81-7.88,7.85,3.39,7.85,7.88-3.37,7.88-7.85,7.88Z"/>
  <path d="M111.62,8.09v2.78c-2.23-2.12-5.17-3.27-8.4-3.27-6.97,0-12.23,5.3-12.23,12.33s5.26,12.33,12.23,12.33c3.3,0,6.23-1.07,8.38-3.05l-.03,2.55h4.38V8.09h-4.33ZM111.3,19.92c0,4.56-3.29,7.88-7.81,7.88s-7.85-3.39-7.85-7.88,3.38-7.88,7.85-7.88,7.81,3.31,7.81,7.88Z"/>
  <path d="M10.55,7.59C4.14,7.59,0,11.74,0,18.15v13.6h4.57v-13.03c0-4.18,2.24-6.68,5.98-6.68s5.98,2.5,5.98,6.68v13.03h4.57v-13.6c0-6.41-4.14-10.56-10.55-10.56Z"/>
  <rect class="cls-3" x="52.85" y="0" width="4.86" height="5.09" rx=".97" ry=".97"/>
  <rect x="52.99" y="8.09" width="4.57" height="23.66"/>
</svg>
