<svg id="Layer_1" data-name="Layer 1" xmlns="http://www.w3.org/2000/svg" viewBox="0 0 218.64 84.39">
  <defs>
    <style>
      .cls-1 {
        fill: none;
      }

      .cls-2 {
        fill: #f8c100;
      }

      .cls-3 {
        fill: #67648a;
      }

      .cls-4 {
        fill: #7b4d9f;
      }
    </style>
  </defs>
  <path class="cls-1" d="M112.82,73.47c-1.85,0-3.22,1.39-3.22,3.23s1.37,3.23,3.22,3.23,3.21-1.37,3.21-3.23-1.35-3.23-3.21-3.23Z"/>
  <path class="cls-1" d="M173.15,73.45c-1.75,0-3.04,1.29-3.04,3.02s1.29,3,3.04,3,3.02-1.28,3.02-3-1.27-3.02-3.02-3.02Z"/>
  <path class="cls-1" d="M127.68,73.47c-1.85,0-3.21,1.38-3.21,3.23s1.36,3.23,3.21,3.23,3.22-1.4,3.22-3.23-1.37-3.23-3.22-3.23Z"/>
  <path class="cls-1" d="M140.31,22.72c-8.54,0-14.74,6.25-14.74,14.85s6.2,14.85,14.74,14.85,14.8-6.38,14.8-14.85-6.36-14.85-14.8-14.85Z"/>
  <path class="cls-1" d="M98.04,73.47c-1.85,0-3.21,1.38-3.21,3.23s1.36,3.23,3.21,3.23,3.22-1.4,3.22-3.23-1.37-3.23-3.22-3.23Z"/>
  <path class="cls-1" d="M150.23,71.07h-2.32v8.67h2.32c2.54,0,4.35-1.83,4.35-4.34s-1.8-4.34-4.35-4.34Z"/>
  <path class="cls-1" d="M44.95,73.47c-1.85,0-3.23,1.39-3.23,3.23s1.37,3.23,3.23,3.23,3.21-1.37,3.21-3.23-1.35-3.23-3.21-3.23Z"/>
  <path class="cls-1" d="M195.15,22.71c-8.44,0-14.81,6.38-14.81,14.85s6.37,14.85,14.81,14.85,14.73-6.25,14.73-14.85-6.19-14.85-14.73-14.85Z"/>
  <path class="cls-1" d="M205.38,73.47c-1.85,0-3.23,1.39-3.23,3.23s1.37,3.23,3.23,3.23,3.21-1.37,3.21-3.23-1.35-3.23-3.21-3.23Z"/>
  <path class="cls-1" d="M30.99,73.44h0c-1.59,0-2.76,1-3.05,2.52h6.08c-.3-1.56-1.48-2.52-3.03-2.52Z"/>
  <path class="cls-3" d="M6.75,79.86c-2.53,0-4.36-1.85-4.36-4.45s1.83-4.46,4.36-4.46c1.86,0,3.32.98,3.92,2.62h1.45c-.65-2.45-2.75-4.01-5.38-4.01-3.37,0-5.81,2.45-5.81,5.85s2.44,5.85,5.81,5.85c2.67,0,4.78-1.61,5.43-4.18h-1.45c-.59,1.74-2.07,2.78-3.98,2.78Z"/>
  <path class="cls-3" d="M18.88,73.66l-.22-1.33h-.98v8.75h1.38v-4.75c0-1.7.9-2.74,2.5-2.74h.89v-1.3h-.78c-1.26,0-2.18.48-2.8,1.38Z"/>
  <path class="cls-3" d="M30.99,72.13c-2.54,0-4.46,1.96-4.46,4.56s1.92,4.57,4.46,4.57c1.9,0,3.44-1.05,4.18-2.86h-1.45c-.54.94-1.51,1.51-2.72,1.51-1.66,0-2.86-1.06-3.08-2.69h7.46c.02-.17.03-.33.03-.5,0-2.56-1.75-4.6-4.41-4.6ZM27.94,75.96c.28-1.52,1.46-2.52,3.05-2.52h0c1.55,0,2.73.97,3.03,2.52h-6.08Z"/>
  <path class="cls-3" d="M48.3,73.67c-.81-.95-2.02-1.53-3.45-1.53-2.59,0-4.53,1.95-4.53,4.57s1.94,4.57,4.53,4.57c1.42,0,2.63-.58,3.43-1.52l.15,1.33h1.14v-8.75h-1.1l-.17,1.34ZM44.95,79.93c-1.85,0-3.23-1.39-3.23-3.23s1.37-3.23,3.23-3.23,3.21,1.37,3.21,3.23-1.35,3.23-3.21,3.23Z"/>
  <path class="cls-3" d="M57.68,77.97v-4.4h2.74v-1.24h-2.74v-1.85h-.22l-2.7,2.85v.25h1.54v4.45c0,1.9,1.16,3.06,3.04,3.06h1.13v-1.27h-.96c-1.19,0-1.84-.65-1.84-1.83Z"/>
  <rect class="cls-3" x="65.87" y="72.33" width="1.38" height="8.75"/>
  <rect class="cls-3" x="65.81" y="69.23" width="1.49" height="1.58"/>
  <polygon class="cls-3" points="76.85 79.28 73.87 72.33 72.44 72.33 76.22 81.07 77.47 81.07 81.16 72.33 79.76 72.33 76.85 79.28"/>
  <rect class="cls-3" x="86.4" y="72.33" width="1.38" height="8.75"/>
  <rect class="cls-3" x="86.35" y="69.23" width="1.49" height="1.58"/>
  <path class="cls-3" d="M101.17,73.43c-.81-.81-1.94-1.3-3.24-1.3-2.63,0-4.51,1.95-4.51,4.57s1.88,4.57,4.51,4.57c1.37,0,2.55-.54,3.36-1.44l.19,1.24h1.07v-11.87h-1.38v4.23ZM98.04,79.93c-1.85,0-3.21-1.38-3.21-3.23s1.36-3.23,3.21-3.23,3.22,1.39,3.22,3.23-1.37,3.23-3.22,3.23Z"/>
  <path class="cls-3" d="M116.17,73.67c-.81-.95-2.02-1.53-3.45-1.53-2.59,0-4.53,1.95-4.53,4.57s1.94,4.57,4.53,4.57c1.42,0,2.63-.58,3.43-1.52l.15,1.33h1.14v-8.75h-1.1l-.17,1.34ZM112.82,79.93c-1.85,0-3.22-1.39-3.22-3.23s1.37-3.23,3.22-3.23,3.21,1.37,3.21,3.23-1.35,3.23-3.21,3.23Z"/>
  <path class="cls-3" d="M130.82,73.43c-.81-.81-1.94-1.3-3.24-1.3-2.63,0-4.51,1.95-4.51,4.57s1.88,4.57,4.51,4.57c1.37,0,2.55-.54,3.36-1.44l.19,1.24h1.07v-11.87h-1.38v4.23ZM127.68,79.93c-1.85,0-3.21-1.38-3.21-3.23s1.36-3.23,3.21-3.23,3.22,1.39,3.22,3.23-1.37,3.23-3.22,3.23Z"/>
  <path class="cls-3" d="M150.27,69.73h-3.78v11.34h3.78c3.34,0,5.75-2.38,5.75-5.67s-2.41-5.67-5.75-5.67ZM150.23,79.74h-2.32v-8.67h2.32c2.54,0,4.35,1.83,4.35,4.34s-1.8,4.34-4.35,4.34Z"/>
  <rect class="cls-3" x="161.68" y="72.33" width="1.38" height="8.75"/>
  <rect class="cls-3" x="161.63" y="69.23" width="1.49" height="1.58"/>
  <path class="cls-3" d="M176.4,73.69c-.79-.96-2-1.55-3.4-1.55-2.43,0-4.3,1.89-4.3,4.34s1.88,4.32,4.3,4.32c1.28,0,2.4-.49,3.19-1.3v.53c0,1.94-1.19,3.1-2.94,3.1-1.28,0-2.38-.62-2.77-1.71h-1.38c.48,1.86,2,2.97,4.14,2.97,2.66,0,4.29-1.72,4.29-4.54v-7.53h-.92l-.22,1.36ZM173.15,79.48c-1.75,0-3.04-1.29-3.04-3s1.29-3.02,3.04-3.02,3.02,1.28,3.02,3.02-1.27,3-3.02,3Z"/>
  <rect class="cls-3" x="183.87" y="72.33" width="1.38" height="8.75"/>
  <rect class="cls-3" x="183.81" y="69.23" width="1.49" height="1.58"/>
  <path class="cls-3" d="M193.36,77.97v-4.4h2.74v-1.24h-2.74v-1.85h-.22l-2.7,2.85v.25h1.54v4.45c0,1.9,1.16,3.06,3.04,3.06h1.13v-1.27h-.96c-1.19,0-1.84-.65-1.84-1.83Z"/>
  <path class="cls-3" d="M208.72,73.67c-.81-.95-2.02-1.53-3.45-1.53-2.59,0-4.53,1.95-4.53,4.57s1.94,4.57,4.53,4.57c1.42,0,2.63-.58,3.43-1.52l.15,1.33h1.14v-8.75h-1.1l-.17,1.34ZM205.38,79.93c-1.85,0-3.23-1.39-3.23-3.23s1.37-3.23,3.23-3.23,3.21,1.37,3.21,3.23-1.35,3.23-3.21,3.23Z"/>
  <rect class="cls-3" x="216.32" y="69.2" width="1.38" height="11.87"/>
  <rect x="47.12" y="15.25" width="8.61" height="44.62"/>
  <path class="cls-2" d="M50.14,9.61h4.11c.66,0,1.27-.35,1.61-.91l3.46-5.72c.35-.58.36-1.31.03-1.9-.33-.59-.96-.96-1.64-.96h-4.08c-.65,0-1.27.35-1.61.9l-3.49,5.72c-.35.58-.37,1.31-.03,1.91.33.59.96.96,1.64.96Z"/>
  <path d="M79.2,43.78v-20.56h13.4v-7.96h-13.4V6.21h-2.4l-13.73,14.49v2.52h7.52v20.78c0,9.8,6.05,15.88,15.79,15.88h6.48v-8.11h-5.61c-5.26,0-8.04-2.76-8.04-7.99Z"/>
  <path d="M154.68,19.47c-4.05-3.33-9.25-5.15-14.87-5.15-13.32,0-22.99,9.78-22.99,23.25s9.67,23.25,22.99,23.25c6.05,0,11.29-1.86,15.31-5.41v4.48h8.18s0-59.88,0-59.88h-8.61v19.47ZM140.31,52.42c-8.54,0-14.74-6.25-14.74-14.85s6.2-14.85,14.74-14.85,14.8,6.38,14.8,14.85-6.36,14.85-14.8,14.85Z"/>
  <path d="M210.48,15.25l-.02,5.24c-4.19-4-9.72-6.18-15.81-6.18-13.15,0-23.06,9.99-23.06,23.25s9.91,23.25,23.06,23.25c6.22,0,11.74-2.02,15.8-5.74l-.06,4.81h8.26V15.25h-8.16ZM209.88,37.56c0,8.61-6.19,14.85-14.73,14.85s-14.81-6.38-14.81-14.85,6.37-14.85,14.81-14.85,14.73,6.25,14.73,14.85Z"/>
  <path d="M19.89,14.32C7.81,14.32,0,22.13,0,34.23v25.65h8.61v-24.57c0-7.89,4.22-12.6,11.28-12.6s11.28,4.71,11.28,12.6v24.57h8.61v-25.65c0-12.09-7.81-19.91-19.89-19.91Z"/>
  <rect class="cls-4" x="99.65" y="0" width="9.17" height="9.6" rx="1.84" ry="1.84"/>
  <rect x="99.93" y="15.25" width="8.61" height="44.62"/>
</svg>
