<?xml version="1.0" encoding="UTF-8"?>
<svg id="Layer_1" data-name="Layer 1" xmlns="http://www.w3.org/2000/svg" viewBox="0 0 115.61 94.48">
  <defs>
    <style>
      .cls-1 {
        fill: #6b839d;
      }

      .cls-2 {
        fill: #3a3d39;
      }

      .cls-3 {
        fill: #40afb6;
      }
    </style>
  </defs>
  <path class="cls-3" d="M81.65,22.31c-.07-1.02-.2-2.02-.39-3-.26-1.32-.63-2.61-1.09-3.84-.02-.05-.04-.1-.06-.15-.77-1.99-1.79-3.85-3.03-5.54-1.36-1.85-2.97-3.49-4.79-4.88-.43-.32-.86-.64-1.31-.93-.97-.65-2-1.22-3.06-1.72-.61-.29-1.23-.55-1.87-.78-.56-.2-1.12-.38-1.7-.55-1.81-.51-3.7-.82-5.65-.89-.03,0-.06,0-.09,0-.12,0-.24,0-.37,0-.14,0-.28-.01-.43-.01-.27,0-.53.01-.79.02-.03,0-.06,0-.09,0-.29.01-.58.03-.87.05-1.64.12-3.24.41-4.78.84,0,0,0,0,0,0-.57.16-1.14.34-1.7.55-.07.02-.13.05-.19.08-.57.21-1.13.45-1.67.71-1.07.5-2.09,1.07-3.06,1.72-.02.01-.03.02-.05.03-.43.29-.85.59-1.26.9-.06.05-.12.1-.19.15-1.34,1.05-2.58,2.23-3.67,3.54-.33.39-.64.79-.94,1.2-.05.07-.1.14-.15.2-1.01,1.4-1.87,2.92-2.56,4.52,0,.02-.02.04-.03.06-.11.25-.2.5-.3.75-.1.27-.2.54-.3.81-.36,1.03-.65,2.1-.86,3.19-.19.98-.32,1.98-.39,3-.03.52-.06,1.05-.06,1.59,0,.21.01.41.02.61.04,1.4.19,2.78.46,4.11.26,1.29.62,2.53,1.08,3.74.02.05.04.09.05.14,3.36,8.68,11.65,14.92,21.41,15.28.03,0,.06,0,.09,0,.06,0,.12,0,.18,0,.2,0,.41.02.61.02s.41-.01.61-.02c.06,0,.12,0,.18,0,.03,0,.06,0,.09,0,3.14-.11,6.13-.84,8.85-2.06,5.13-2.3,9.31-6.34,11.77-11.38.29-.6.56-1.21.8-1.84.02-.05.04-.1.06-.15.46-1.2.82-2.44,1.08-3.72.27-1.33.42-2.71.46-4.11,0-.2.02-.41.02-.61,0-.53-.02-1.06-.06-1.58ZM63.04,2.21c.59.14,1.17.31,1.74.5,1.79.59,3.48,1.4,5.03,2.4.45.29.9.59,1.33.91,1.41,1.05,2.69,2.27,3.81,3.62.34.41.66.83.97,1.27,1.78,2.47,3.06,5.32,3.71,8.4,0,0,0,.02,0,.03.27,1.29.42,2.61.45,3.97,0,.18.01.35.01.53,0,.02,0,.04,0,.06,0,.29-.01.57-.02.86-.08-.21-.16-.43-.25-.64-.01-.02-.02-.05-.03-.07-.29-.67-.6-1.33-.94-1.96-.51-.95-1.08-1.85-1.71-2.72-.68-.94-1.43-1.83-2.24-2.67l-.45-.45-.15-.15c-.06-.05-.11-.1-.17-.16-.17-.16-.34-.32-.52-.48,0,0,0,0-.01-.01-.39-.34-.79-.67-1.2-.99-.42-.33-.85-.64-1.3-.94-1.14-.76-2.34-1.43-3.6-1.99-.43-.19-.86-.37-1.3-.54-.55-.21-1.11-.39-1.68-.56-1.86-.54-3.81-.87-5.82-.94-.03,0-.06,0-.09,0V1.61s.06,0,.09,0c.41.02.82.04,1.22.08,1.07.1,2.11.28,3.13.52ZM72.21,31.76l-4.9,4.9-8.71,8.71v-7.44l.96-.96.22-.22,7.72-7.72,8.53-8.53c.79,1.11,1.47,2.3,2.05,3.54.2.42.38.86.55,1.3l-3.79,3.79-2.63,2.63ZM43.41,31.76c-.95-.8-1.83-1.68-2.63-2.63-1.3-1.53-2.39-3.24-3.24-5.08-.29-.64-.56-1.29-.79-1.96-.12-.34-.23-.69-.33-1.03-.17-.57-.32-1.14-.44-1.73.12-.58.27-1.16.44-1.72.02-.07.04-.14.06-.21l1.98,1.98,1.14,1.14,5.26,5.27,10.98,10.98.22.22c-4.8-.37-9.17-2.27-12.65-5.21ZM44.51,13.51l-1.78-1.78-2.08-2.08c1.08-1.3,2.3-2.47,3.65-3.49.06-.04.11-.09.17-.13l4.95,4.95,1.24,1.24,2.75,2.75,3.52,3.52.09.09v7.44l-11.36-11.36-1.15-1.15ZM75.06,19.22l-.1.1-3.02,3.02-13.34,13.34v-7.44l.09-.09,5.16-5.16,7.43-7.43c.72.55,1.4,1.14,2.05,1.77l.49.49c.43.45.85.91,1.24,1.39ZM58.6,18.57l.09-.09,1.72-1.72,4.54-4.54c1.78.6,3.46,1.42,5,2.43l-.15.15-2.08,2.08-9.12,9.12v-7.44ZM63.22,11.71l-.22.22-.32.32-4.08,4.08v-5.27c1.59.06,3.13.28,4.62.65ZM56.93,1.61s.06,0,.09,0v5.05l-4.44-4.44s.02,0,.03,0c1.39-.33,2.84-.54,4.32-.6ZM50.66,2.77c.06-.02.11-.04.17-.06l6.19,6.19v7.44l-4.62-4.62-1.29-1.29-4.09-4.09-1.22-1.22c1.51-.97,3.14-1.76,4.86-2.34ZM39.55,11.1c.04-.06.09-.12.13-.18l3.53,3.53,1.13,1.13,4.8,4.8,7.78,7.78.09.09v7.44l-16.46-16.46-1.13-1.13-.99-.99-1.39-1.39c.65-1.65,1.49-3.2,2.5-4.63ZM36,28.64s0,0,0,0c-.17-.79-.31-1.6-.39-2.43-.05-.48-.08-.96-.1-1.45-.01-.28-.02-.57-.02-.86,0-.02,0-.04,0-.06,0-.18,0-.35.01-.53.09.24.19.49.29.73.03.06.06.13.09.19.26.6.55,1.2.86,1.77.81,1.51,1.78,2.92,2.89,4.21.82.97,1.72,1.86,2.69,2.69,1.76,1.5,3.74,2.75,5.89,3.7.03.01.07.03.1.05.21.09.42.18.64.26.12.05.24.1.36.14,2.38.91,4.95,1.45,7.62,1.55.03,0,.06,0,.09,0v7.58s-.06,0-.09,0c-.48-.02-.95-.05-1.42-.1-9.64-.99-17.48-8.15-19.5-17.46ZM60.11,46.1l8.49-8.49,4.7-4.7c.96-.82,1.86-1.72,2.69-2.69l3.21-3.21c.13.42.24.85.34,1.29.03.11.05.22.08.33-2.02,9.31-9.86,16.47-19.5,17.47Z"/>
  <g>
    <g>
      <path class="cls-2" d="M0,69.05c0-6.56,4.82-11.38,11.65-11.38,5.48,0,9.71,3.11,11.11,7.77h-2.54c-1.3-3.35-4.48-5.56-8.57-5.56-5.45,0-9.24,3.88-9.24,9.17s3.78,9.17,9.24,9.17c4.08,0,7.26-2.21,8.57-5.56h2.54c-1.4,4.65-5.62,7.77-11.11,7.77-6.83,0-11.65-4.82-11.65-11.38Z"/>
      <path class="cls-2" d="M35.14,57.67c-6.09,0-9.44,3.62-9.44,9.37v12.95h2.34v-7.36h14.16v7.36h2.41v-12.95c0-5.76-3.35-9.37-9.47-9.37ZM42.2,70.42h-14.16v-3.38c0-4.42,2.44-7.16,7.06-7.16s7.1,2.74,7.1,7.16v3.38Z"/>
      <path class="cls-2" d="M48.59,58.11h2.41v18.1c0,.87.71,1.58,1.58,1.58h11.68v2.21h-14.09c-.87,0-1.58-.71-1.58-1.58v-20.31Z"/>
      <path class="cls-2" d="M67.46,58.11h2.41v21.89h-2.41v-21.89Z"/>
      <path class="cls-2" d="M74.42,58.11h7.83c7.56,0,11.61,4.38,11.61,10.94s-4.05,10.94-11.61,10.94h-7.83v-21.89ZM82.25,77.79c6.19,0,9.2-3.48,9.2-8.73s-3.01-8.73-9.2-8.73h-5.42v17.47h5.42Z"/>
      <path class="cls-2" d="M96.71,67.04c0-5.76,3.35-9.37,9.44-9.37s9.47,3.62,9.47,9.37v12.95h-2.41v-7.36h-14.16v7.36h-2.34v-12.95ZM113.21,70.42v-3.38c0-4.42-2.41-7.16-7.1-7.16s-7.06,2.74-7.06,7.16v3.38h14.16Z"/>
      <path class="cls-2" d="M38.78,51.21h-1.65c-.08,0-.15.04-.2.1l-2.86,3.86c-.05.08-.06.18-.02.26.04.08.13.14.22.14h1.55c.08,0,.15-.04.2-.1l2.95-3.86c.06-.08.07-.18.03-.26-.04-.09-.13-.14-.22-.14Z"/>
    </g>
    <g>
      <path class="cls-1" d="M40.77,93.64c.55,0,.97-.13,1.25-.38s.42-.57.42-.97c0-.34-.11-.62-.33-.84-.22-.21-.56-.39-1.03-.53l-1.07-.32c-.53-.16-.94-.39-1.24-.69-.3-.3-.45-.71-.45-1.23,0-.31.06-.59.18-.84s.29-.46.51-.63c.22-.17.49-.3.79-.4.31-.1.66-.14,1.04-.14.33,0,.63.03.92.08.28.05.53.13.74.22.21.1.37.2.48.31.12.11.17.23.17.36,0,.11-.03.21-.09.3-.06.08-.13.15-.22.2-.21-.16-.49-.31-.83-.43-.34-.12-.72-.19-1.14-.19-.48,0-.87.1-1.14.31s-.41.49-.41.86c0,.29.1.52.3.7s.53.34.98.47l.75.22c.65.19,1.16.45,1.53.79.37.34.56.82.56,1.42,0,.65-.23,1.17-.7,1.58-.47.4-1.13.6-1.99.6-.38,0-.72-.03-1.03-.1-.31-.06-.57-.15-.79-.26-.22-.11-.39-.22-.51-.35-.12-.13-.18-.25-.18-.38,0-.14.04-.26.13-.35.09-.1.19-.16.3-.2.09.09.2.18.33.28.13.09.28.18.45.26.17.08.37.14.58.19.21.05.45.07.7.07Z"/>
      <path class="cls-1" d="M47.56,87.68v6.62s-.1.03-.19.05c-.09.02-.18.03-.27.03-.36,0-.54-.15-.54-.45v-6.25h-2.3s-.05-.1-.08-.17c-.02-.07-.04-.15-.04-.24,0-.14.03-.25.1-.33.06-.08.16-.12.28-.12h5.33s.05.1.07.17c.02.07.04.15.04.23,0,.14-.03.25-.1.33-.07.08-.16.12-.28.12h-2.03Z"/>
      <path class="cls-1" d="M57.01,92.86c-.13.34-.32.63-.57.86-.25.24-.56.42-.92.55s-.77.2-1.24.2-.88-.06-1.24-.2-.67-.32-.91-.55c-.25-.24-.43-.53-.56-.86-.13-.34-.19-.71-.19-1.13v-4.88s.11-.03.19-.06c.09-.02.18-.03.28-.03.35,0,.53.15.53.46v4.42c0,.33.05.62.15.86.1.25.23.45.4.62.17.17.37.29.6.38s.49.12.76.12.52-.04.76-.12c.24-.08.44-.21.61-.38s.3-.37.4-.62c.1-.25.15-.53.15-.86v-4.79s.1-.03.19-.06c.09-.02.18-.03.28-.03.36,0,.54.15.54.46v4.51c0,.42-.06.8-.19,1.13Z"/>
      <path class="cls-1" d="M65.65,90.49c0,.67-.09,1.26-.28,1.75-.19.5-.45.91-.79,1.24s-.75.57-1.24.73-1.03.24-1.63.24c-.26,0-.56-.01-.89-.03-.33-.02-.64-.08-.94-.16-.34-.11-.52-.3-.52-.57v-6.33c0-.13.03-.23.1-.3.07-.07.17-.13.31-.17.25-.08.54-.14.86-.16.32-.03.64-.04.96-.04.6,0,1.15.08,1.64.24s.92.4,1.27.71c.35.32.63.71.83,1.18s.3,1.02.3,1.66ZM64.62,90.49c0-.53-.08-.98-.24-1.35-.16-.37-.38-.68-.65-.92s-.59-.41-.96-.52-.76-.17-1.18-.17c-.26,0-.49,0-.68.02-.19.02-.37.04-.54.08v5.86c.2.05.41.08.63.1.23.02.46.02.7.02.97,0,1.7-.26,2.19-.79s.73-1.31.73-2.34Z"/>
      <path class="cls-1" d="M68.23,94.35c-.08.02-.17.03-.27.03-.36,0-.54-.15-.54-.45v-7.07s.1-.03.19-.06c.09-.02.18-.03.28-.03.35,0,.53.15.53.46v7.07s-.1.03-.19.05Z"/>
      <path class="cls-1" d="M77.35,90.57c0,.64-.09,1.2-.27,1.69-.18.49-.43.9-.75,1.22s-.7.57-1.13.74c-.43.17-.91.25-1.42.25s-.98-.08-1.42-.25c-.43-.17-.81-.41-1.13-.74s-.57-.73-.75-1.22c-.18-.49-.27-1.05-.27-1.69s.09-1.2.28-1.69c.18-.48.44-.89.76-1.22s.7-.58,1.13-.75.9-.25,1.4-.25.97.08,1.4.25c.44.17.81.42,1.13.75s.57.73.76,1.22c.18.49.28,1.05.28,1.69ZM76.32,90.57c0-.99-.23-1.74-.7-2.27-.46-.53-1.08-.79-1.85-.79-.38,0-.74.07-1.05.2-.31.14-.58.33-.8.59-.22.26-.39.58-.51.95-.12.38-.18.81-.18,1.31,0,.98.23,1.74.69,2.27.46.53,1.07.79,1.85.79s1.4-.26,1.86-.79c.46-.53.69-1.28.69-2.27Z"/>
    </g>
  </g>
</svg>